<svg width="123" height="166" viewBox="0 0 123 166" fill="none" xmlns="http://www.w3.org/2000/svg">
<path d="M22.5 19.5L22 10.5L88.5 1H116L117.5 3.5V10H121.5L122.5 13.5V16L120.5 17.5L119 19.5H116.5H111L105 24C99.5 24.3333 88.4 25 88 25C87.5 25 78 26 77.5 26C77.1 26 75.6667 28.3333 75 29.5L62.5 32.5L57 33.5L56.5 34.5L60 35L61.5 37.5L61 42L59.5 47L57 54L55 63H68.5L71.5 64L80 69.5L83 72L81.5 74.5L75.5 76.5L70.5 78.5L60.5 80.5L52 82L49 84.5L47.5 92.5L46 100.5L43.2419 114.5L42 123.5L40.5 125L38.5 126L36.5 129.5L34 139L31.5 151L27 162L25 163L23 161.5V156.5L21.5 160.5L18 165H13.5L10 162L10.5 156L16 131L19.5 114.5L18.5 113L17 108L20 95.5L21.5 84.5L10 84L7 81.5V78V75L1 72V70.5L2.5 69.5H11V65.5L26 65L35 34L23 35.5L19.5 35L17.5 33.5L17 31.5L20.5 29.5L23.5 28.5V27.5H8L6.5 27V25.5V24L8.5 23L10.5 22L12.5 21L16.5 20L17 19.5H22.5Z" stroke="black"/>
</svg>
